<?xml version="1.0" encoding="UTF-8"?>
<svg version="1.1" xmlns="http://www.w3.org/2000/svg" width="252" height="253">
<path d="M0 0 C0.75166443 -0.00807175 1.50332886 -0.01614349 2.277771 -0.02445984 C3.87135548 -0.03826009 5.46496902 -0.04900031 7.05859375 -0.05688477 C8.65438791 -0.06828788 10.25014759 -0.08854928 11.84570312 -0.1184082 C41.00395166 -0.66254149 71.71073288 10.09640381 93.234375 30.23828125 C93.234375 30.89828125 93.234375 31.55828125 93.234375 32.23828125 C93.976875 32.46515625 94.719375 32.69203125 95.484375 32.92578125 C98.79748879 34.5070401 100.07057323 36.30667886 102.234375 39.23828125 C102.853125 39.85703125 103.471875 40.47578125 104.109375 41.11328125 C105.96299722 42.96690347 107.73875451 44.84617803 109.484375 46.80078125 C110.26554687 47.66896484 110.26554687 47.66896484 111.0625 48.5546875 C112.234375 50.23828125 112.234375 50.23828125 112.234375 53.23828125 C112.894375 53.23828125 113.554375 53.23828125 114.234375 53.23828125 C120.11914291 61.68259506 124.78814943 70.8475054 128.671875 80.36328125 C128.98914551 81.12415039 129.30641602 81.88501953 129.63330078 82.66894531 C134.83221258 95.96900631 135.74754756 109.22483562 135.68041992 123.32543945 C135.67191696 126.03739686 135.70077865 128.74723352 135.73242188 131.45898438 C135.79484047 146.61011038 133.75087557 161.12717131 127.484375 175.05078125 C127.14293457 175.83428955 126.80149414 176.61779785 126.44970703 177.42504883 C122.24034075 186.82917767 116.86923899 195.40840859 110.53515625 203.53515625 C109.33425832 205.10750309 108.24669328 206.76469845 107.171875 208.42578125 C92.12461122 230.26858352 61.70004677 246.40379709 36.234375 251.23828125 C13.19022879 254.25468458 -9.83597213 254.49979794 -31.765625 246.23828125 C-32.71953125 245.93019531 -33.6734375 245.62210938 -34.65625 245.3046875 C-45.82152548 241.63189951 -56.76851624 235.80326595 -65.765625 228.23828125 C-66.78398438 227.40167969 -67.80234375 226.56507813 -68.8515625 225.703125 C-83.5940064 213.50233472 -94.79506215 200.19112459 -103.765625 183.23828125 C-104.3121875 182.2121875 -104.85875 181.18609375 -105.421875 180.12890625 C-110.01578796 170.89420367 -112.50590987 161.25010604 -114.765625 151.23828125 C-115.01441406 150.16191406 -115.26320313 149.08554688 -115.51953125 147.9765625 C-118.92343224 130.14773845 -117.31229153 111.66983315 -112.765625 94.23828125 C-112.45367187 93.03816406 -112.14171875 91.83804688 -111.8203125 90.6015625 C-107.95998251 77.15528703 -102.17387145 61.13365759 -91.765625 51.23828125 C-91.311875 50.47515625 -90.858125 49.71203125 -90.390625 48.92578125 C-87.53223161 44.19843834 -83.88033461 39.92733124 -79.765625 36.23828125 C-79.105625 36.23828125 -78.445625 36.23828125 -77.765625 36.23828125 C-77.435625 35.24828125 -77.105625 34.25828125 -76.765625 33.23828125 C-74.55078125 31.1953125 -74.55078125 31.1953125 -71.828125 29.05078125 C-70.93222656 28.33535156 -70.03632812 27.61992187 -69.11328125 26.8828125 C-66.765625 25.23828125 -66.765625 25.23828125 -64.765625 25.23828125 C-64.765625 24.57828125 -64.765625 23.91828125 -64.765625 23.23828125 C-62.27564662 21.4955953 -59.79293958 19.8820513 -57.203125 18.30078125 C-56.49865234 17.85798828 -55.79417969 17.41519531 -55.06835938 16.95898438 C-50.7470615 14.28655039 -46.48686888 12.11438413 -41.765625 10.23828125 C-40.95480469 9.91085937 -40.14398438 9.5834375 -39.30859375 9.24609375 C-26.81784884 4.5646537 -13.40915781 0.13984157 0 0 Z " fill="#FDBD5B" transform="translate(116.765625,-0.23828125)"/>
<path d="M0 0 C13.2 0 26.4 0 40 0 C40 4.29 40 8.58 40 13 C73.66 13.495 73.66 13.495 108 14 C108 20.6 108 27.2 108 34 C96.12 34 84.24 34 72 34 C72 67.99 72 101.98 72 137 C64.08 137 56.16 137 48 137 C48 103.01 48 69.02 48 34 C43.38 34 38.76 34 34 34 C34 38.29 34 42.58 34 47 C27.4 47 20.8 47 14 47 C14 57.89 14 68.78 14 80 C9.38 80 4.76 80 0 80 C0 53.6 0 27.2 0 0 Z " fill="#8E115C" transform="translate(67,56)"/>
<path d="M0 0 C13.2 0 26.4 0 40 0 C40 4.29 40 8.58 40 13 C31.42 13 22.84 13 14 13 C14 19.6 14 26.2 14 33 C20.6 33 27.2 33 34 33 C34 37.62 34 42.24 34 47 C27.4 47 20.8 47 14 47 C14 57.89 14 68.78 14 80 C9.38 80 4.76 80 0 80 C0 53.6 0 27.2 0 0 Z " fill="#2E1286" transform="translate(67,56)"/>
<path d="M0 0 C0.33 0 0.66 0 1 0 C1 4.29 1 8.58 1 13 C23.44 13 45.88 13 69 13 C69 20.26 69 27.52 69 35 C68 36 68 36 64.67358398 36.11352539 C63.19774445 36.11327435 61.72189903 36.10771514 60.24609375 36.09765625 C59.55906372 36.09664917 58.87203369 36.09564209 58.16418457 36.09460449 C55.58860616 36.08935776 53.01305147 36.07539659 50.4375 36.0625 C44.683125 36.041875 38.92875 36.02125 33 36 C33.33 57.45 33.66 78.9 34 101 C34.99 101 35.98 101 37 101 C38.89692612 101.15373063 40.79272833 101.32166855 42.6875 101.5 C43.68136719 101.5928125 44.67523438 101.685625 45.69921875 101.78125 C46.45847656 101.8534375 47.21773438 101.925625 48 102 C48 101.01 48 100.02 48 99 C50.64 99 53.28 99 56 99 C55.979375 99.969375 55.95875 100.93875 55.9375 101.9375 C55.64381501 104.87465895 55.64381501 104.87465895 57 106 C57.09927286 107.9562593 57.12969729 109.91622909 57.125 111.875 C57.12886719 113.47988281 57.12886719 113.47988281 57.1328125 115.1171875 C57 118 57 118 56 121 C53.23547967 122.38226016 50.9538637 122.09525387 47.875 122.0625 C46.77929688 122.05347656 45.68359375 122.04445313 44.5546875 122.03515625 C43.29011719 122.01775391 43.29011719 122.01775391 42 122 C42.01160156 122.71027344 42.02320313 123.42054688 42.03515625 124.15234375 C42.04417969 125.07144531 42.05320312 125.99054688 42.0625 126.9375 C42.07410156 127.85402344 42.08570313 128.77054688 42.09765625 129.71484375 C42 132 42 132 41 133 C38.32941149 133.14115161 35.67567762 133.04247107 33 133 C32.67 134.32 32.34 135.64 32 137 C32 103.01 32 69.02 32 34 C43.88 34 55.76 34 68 34 C68 27.4 68 20.8 68 14 C36.98 14 5.96 14 -26 14 C-26 13.67 -26 13.34 -26 13 C-17.42 13 -8.84 13 0 13 C0 8.71 0 4.42 0 0 Z " fill="#EF9E73" transform="translate(107,56)"/>
<path d="M0 0 C3.70756388 2.47170925 5.22452944 4.54858832 6.625 8.75 C7.406817 15.24805277 6.44640774 20.37732773 2.625 25.75 C-0.45015633 28.64426479 -3.2201746 29.00458318 -7.3125 29.25 C-10.84244225 29.13952491 -13.07014775 28.74711465 -15.875 26.5625 C-20.25115525 21.63932535 -20.77854862 17.69335168 -20.625 11.25390625 C-20.1517741 6.5142531 -18.85845088 3.10255815 -15.25 -0.1875 C-9.9661644 -2.14022185 -5.25717119 -1.94710044 0 0 Z " fill="#8D1750" transform="translate(215.375,160.25)"/>
<path d="M0 0 C2.536875 -0.103125 5.07375 -0.20625 7.6875 -0.3125 C8.47729248 -0.35802002 9.26708496 -0.40354004 10.08081055 -0.45043945 C14.16539907 -0.53048892 15.63724001 -0.27594162 19.01953125 2.296875 C21 5 21 5 21 8.5625 C20.06898785 11.76285426 19.22998986 13.57609797 17 16 C17.41572266 16.77923828 17.41572266 16.77923828 17.83984375 17.57421875 C19.80733267 21.36216005 21.46337389 24.70699113 22 29 C20.02 29 18.04 29 16 29 C15.78085938 28.30132812 15.56171875 27.60265625 15.3359375 26.8828125 C14.86027344 25.51769531 14.86027344 25.51769531 14.375 24.125 C13.92253906 22.76761719 13.92253906 22.76761719 13.4609375 21.3828125 C11.89096443 18.24867453 11.89096443 18.24867453 6 17 C6 21.29 6 25.58 6 30 C4.02 30 2.04 30 0 30 C0 20.1 0 10.2 0 0 Z " fill="#9E314B" transform="translate(169,159)"/>
<path d="M0 0 C14 0 14 0 20 3 C21.73705051 6.47410101 21.44525447 10.20184448 21 14 C19.6875 16.5625 19.6875 16.5625 17 18 C13.26589068 18.31699633 9.76240217 18.17916201 6 18 C6 21.96 6 25.92 6 30 C4.02 30 2.04 30 0 30 C0 20.1 0 10.2 0 0 Z " fill="#982A49" transform="translate(142,159)"/>
<path d="M0 0 C13.2 0 26.4 0 40 0 C40 4.29 40 8.58 40 13 C31.42 13 22.84 13 14 13 C14 19.6 14 26.2 14 33 C20.6 33 27.2 33 34 33 C34 37.62 34 42.24 34 47 C27.4 47 20.8 47 14 47 C14 57.89 14 68.78 14 80 C9.38 80 4.76 80 0 80 C0 53.6 0 27.2 0 0 Z M1 1 C1 26.74 1 52.48 1 79 C4.96 79 8.92 79 13 79 C13.33 68.11 13.66 57.22 14 46 C19.61 45.34 25.22 44.68 31 44 C30.67 42.68 30.34 41.36 30 40 C30.66 40 31.32 40 32 40 C31.505 37.525 31.505 37.525 31 35 C25.06 34.67 19.12 34.34 13 34 C13.33 27.07 13.66 20.14 14 13 C26.375 12.505 26.375 12.505 39 12 C39 8.7 39 5.4 39 2 C38.505 1.505 38.505 1.505 38 1 C25.79 1 13.58 1 1 1 Z " fill="#54286B" transform="translate(67,56)"/>
<path d="M0 0 C31.02 0 62.04 0 94 0 C94 6.6 94 13.2 94 20 C82.12 20 70.24 20 58 20 C58 19.34 58 18.68 58 18 C68.89 18 79.78 18 91 18 C90.505 10.575 90.505 10.575 90 3 C88.96096527 2.98969254 87.92193054 2.97938507 86.85140991 2.96876526 C77.05226963 2.8709449 67.25319162 2.76820279 57.45415306 2.66066074 C52.41655996 2.60553208 47.37896096 2.55212838 42.34130859 2.50268555 C37.47833967 2.45489339 32.61543904 2.40254564 27.75255203 2.34705925 C25.89866464 2.32670285 24.04475858 2.30797894 22.19083786 2.29092598 C19.59118668 2.26673278 16.99166289 2.23669934 14.39208984 2.20532227 C13.62819946 2.1995668 12.86430908 2.19381134 12.07727051 2.18788147 C7.95519742 2.1314505 4.04577432 1.79619215 0 1 C0 0.67 0 0.34 0 0 Z " fill="#95244C" transform="translate(81,70)"/>
<path d="M0 0 C1.0209375 0.04253906 1.0209375 0.04253906 2.0625 0.0859375 C2.743125 0.09882813 3.42375 0.11171875 4.125 0.125 C6.0625 0.4609375 6.0625 0.4609375 9.0625 2.4609375 C10.75715856 7.54491317 10.93649264 12.55404446 8.6875 17.4609375 C6.54748639 20.0948004 5.56237267 20.39573672 2.1875 20.8359375 C-0.9375 20.4609375 -0.9375 20.4609375 -3.3125 18.6484375 C-5.65692428 14.04975911 -5.77663428 9.53354205 -4.9375 4.4609375 C-2.85169806 0.67842817 -2.85169806 0.67842817 0 0 Z " fill="#FDBC5A" transform="translate(205.9375,163.5390625)"/>
<path d="M0 0 C1.89575251 -0.02721176 3.79161979 -0.04649136 5.6875 -0.0625 C6.74324219 -0.07410156 7.79898438 -0.08570313 8.88671875 -0.09765625 C11.72410262 -0.00865425 14.2438919 0.35060162 17 1 C17 1.66 17 2.32 17 3 C17.61875 3.04125 18.2375 3.0825 18.875 3.125 C21 4 21 4 22.1875 6.375 C23.27390278 11.22202778 23.66534962 16.05069706 24 21 C26.01822917 21.16276042 28.03645833 21.32552083 30.0546875 21.48828125 C32 22 32 22 34 25 C34.25760279 27.69452521 34.08900053 30.28548375 34 33 C32.68 33 31.36 33 30 33 C29.67 34.32 29.34 35.64 29 37 C27.5 35.6875 27.5 35.6875 26 34 C26 33.01 26 32.02 26 31 C25.34 31 24.68 31 24 31 C23.67 29.02 23.34 27.04 23 25 C22.34 25 21.68 25 21 25 C20.67 26.32 20.34 27.64 20 29 C19.360625 29.12375 18.72125 29.2475 18.0625 29.375 C17.381875 29.58125 16.70125 29.7875 16 30 C15.67 30.66 15.34 31.32 15 32 C12.77110504 32.05428973 10.54182529 32.09292338 8.3125 32.125 C7.07113281 32.14820313 5.82976562 32.17140625 4.55078125 32.1953125 C1.18762143 32.01032021 -0.9985587 31.45767895 -4 30 C-3.67 28.68 -3.34 27.36 -3 26 C-2.38125 26.66 -1.7625 27.32 -1.125 28 C3.26359792 30.80870267 6.92091093 30.66940218 12 30 C15.85773269 28.60464988 16.74825568 27.43404194 18.8125 23.875 C20.85085891 18.36560707 20.71764334 13.15293001 18.875 7.625 C16.45622748 4.23871847 14.98159217 3.27979748 11 2 C7.31782751 1.77176617 3.68342223 1.82303843 0 2 C0 1.34 0 0.68 0 0 Z M24 35 C24.66 35.33 25.32 35.66 26 36 C25.01 36 24.02 36 23 36 C23.33 35.67 23.66 35.34 24 35 Z " fill="#FEB768" transform="translate(201,158)"/>
<path d="M0 0 C0.85948746 -0.0033284 1.71897491 -0.0066568 2.60450745 -0.01008606 C4.42619286 -0.01515895 6.24788761 -0.01749427 8.06958008 -0.01733398 C10.86359915 -0.01951928 13.65722282 -0.03766769 16.45117188 -0.05664062 C18.21744656 -0.05957465 19.98372313 -0.06155939 21.75 -0.0625 C23.00942665 -0.07327827 23.00942665 -0.07327827 24.29429626 -0.08427429 C30.21258444 -0.06085306 30.21258444 -0.06085306 32.44140625 2.16796875 C19.24140625 2.16796875 6.04140625 2.16796875 -7.55859375 2.16796875 C-7.55859375 28.56796875 -7.55859375 54.96796875 -7.55859375 82.16796875 C-8.87859375 80.51796875 -10.19859375 78.86796875 -11.55859375 77.16796875 C-11.22859375 76.17796875 -10.89859375 75.18796875 -10.55859375 74.16796875 C-10.44516991 71.82790507 -10.39194241 69.4847898 -10.36914062 67.14208984 C-10.36084732 66.43124741 -10.35255402 65.72040497 -10.3440094 64.98802185 C-10.32662504 63.44605089 -10.31145382 61.90405375 -10.29823303 60.36204147 C-10.27720302 57.92509821 -10.25018286 55.48828723 -10.22155762 53.05142212 C-10.15173187 47.00161307 -10.0922298 40.9517104 -10.03253174 34.90179443 C-9.98168322 29.78624406 -9.92689708 24.67076627 -9.86671448 19.55531693 C-9.84005896 17.14833962 -9.81929708 14.74135581 -9.79870605 12.33432007 C-9.78211124 10.86789625 -9.76524013 9.40147552 -9.74804688 7.93505859 C-9.7355188 6.64949066 -9.72299072 5.36392273 -9.71008301 4.03939819 C-9.40333794 -1.77485442 -4.69071484 0.00620209 0 0 Z " fill="#E1A776" transform="translate(74.55859375,53.83203125)"/>
<path d="M0 0 C12.375 0 12.375 0 18 3 C18 5.31 18 7.62 18 10 C17.34 10 16.68 10 16 10 C16 8.68 16 7.36 16 6 C12.37 5.34 8.74 4.68 5 4 C5 6.64 5 9.28 5 12 C7.64 12 10.28 12 13 12 C11.68 12.33 10.36 12.66 9 13 C9.33 13.99 9.66 14.98 10 16 C8.02 16 6.04 16 4 16 C4 19.96 4 23.92 4 28 C2.68 28 1.36 28 0 28 C0 18.76 0 9.52 0 0 Z " fill="#8C1155" transform="translate(170,160)"/>
<path d="M0 0 C7.26 0 14.52 0 22 0 C21.01 0.495 21.01 0.495 20 1 C20.66 1.66 21.32 2.32 22 3 C22.99 3 23.98 3 25 3 C24.67 4.65 24.34 6.3 24 8 C24.99 8 25.98 8 27 8 C26.98839844 8.88042969 26.97679687 9.76085937 26.96484375 10.66796875 C26.95582031 11.82941406 26.94679687 12.99085938 26.9375 14.1875 C26.92589844 15.33605469 26.91429687 16.48460937 26.90234375 17.66796875 C26.98807168 20.59300586 27.32150977 23.16316291 28 26 C26.35 25.34 24.7 24.68 23 24 C23.04125 25.27875 23.0825 26.5575 23.125 27.875 C23.1953125 30.0546875 23.1953125 30.0546875 23 32 C22.34 32.66 21.68 33.32 21 34 C20.01 34 19.02 34 18 34 C18 33.34 18 32.68 18 32 C17.01 31.67 16.02 31.34 15 31 C14.67 28.69 14.34 26.38 14 24 C16 27 16 27 16 30 C17.98 30 19.96 30 22 30 C21.6390625 29.16855469 21.278125 28.33710938 20.90625 27.48046875 C20.4421875 26.39378906 19.978125 25.30710938 19.5 24.1875 C19.0359375 23.10855469 18.571875 22.02960938 18.09375 20.91796875 C17 18 17 18 17 15 C17.515625 14.4225 18.03125 13.845 18.5625 13.25 C20.3408059 10.93530427 20.3408059 10.93530427 19.875 7.375 C19.33269236 3.74064082 19.33269236 3.74064082 16 2 C13.24582682 1.69933846 10.57354853 1.49074701 7.8125 1.375 C6.68811523 1.31699219 6.68811523 1.31699219 5.54101562 1.2578125 C3.69440801 1.16371784 1.8472381 1.08077681 0 1 C0 0.67 0 0.34 0 0 Z " fill="#F5A76A" transform="translate(169,158)"/>
<path d="M0 0 C0.33 0 0.66 0 1 0 C1.18262291 5.29606429 0.81674579 8.97723223 -1 14 C-2.20733134 21.09870528 -2.18386955 28.06897524 -2.1875 35.25 C-2.19974609 36.50941406 -2.21199219 37.76882812 -2.22460938 39.06640625 C-2.23624094 46.53386897 -1.93045245 53.74898877 0 61 C0.33 61.33 0.66 61.66 1 62 C1.14115161 64.67058851 1.04247107 67.32432238 1 70 C-1.13955257 66.79067114 -1.73179063 64.49036681 -2.5625 60.75 C-2.81128906 59.65171875 -3.06007812 58.5534375 -3.31640625 57.421875 C-7.08292253 38.56777066 -6.09297514 18.27892542 0 0 Z " fill="#FCF0DD" transform="translate(5,91)"/>
<path d="M0 0 C3.96 0 7.92 0 12 0 C12 33.66 12 67.32 12 102 C11.01 100.68 10.02 99.36 9 98 C9.30498409 95.99835587 9.30498409 95.99835587 10 94 C10.09001981 91.0253827 10.12616703 88.07487799 10.11352539 85.10058594 C10.11367142 84.20267334 10.11381744 83.30476074 10.1139679 82.37963867 C10.11327176 79.41452613 10.10549329 76.44947656 10.09765625 73.484375 C10.09579101 71.42742955 10.09436761 69.37048365 10.09336853 67.3135376 C10.0895517 61.90155815 10.07972851 56.48960556 10.06866455 51.07763672 C10.05843252 45.55436568 10.05386707 40.03109029 10.04882812 34.5078125 C10.03810552 23.6718632 10.02103907 12.83593384 10 2 C6.7 1.67 3.4 1.34 0 1 C0 0.67 0 0.34 0 0 Z " fill="#FEB56E" transform="translate(102,91)"/>
<path d="M0 0 C2.375 -0.1875 2.375 -0.1875 5 0 C7.67927341 4.01891012 7.15601248 6.24161923 7 11 C5.68 11 4.36 11 3 11 C2.67 12.32 2.34 13.64 2 15 C0.5 13.6875 0.5 13.6875 -1 12 C-1 11.01 -1 10.02 -1 9 C-1.66 9 -2.32 9 -3 9 C-3 6.69 -3 4.38 -3 2 C-2.01 2 -1.02 2 0 2 C0 1.34 0 0.68 0 0 Z M-3 13 C-2.34 13.33 -1.68 13.66 -1 14 C-1.99 14 -2.98 14 -4 14 C-3.67 13.67 -3.34 13.34 -3 13 Z " fill="#F4AA63" transform="translate(228,180)"/>
<path d="M0 0 C2.64 0 5.28 0 8 0 C7.979375 0.969375 7.95875 1.93875 7.9375 2.9375 C7.64381501 5.87465895 7.64381501 5.87465895 9 7 C9.09927286 8.9562593 9.12969729 10.91622909 9.125 12.875 C9.12886719 14.47988281 9.12886719 14.47988281 9.1328125 16.1171875 C9 19 9 19 8 22 C5.23547967 23.38226016 2.9538637 23.09525387 -0.125 23.0625 C-1.22070312 23.05347656 -2.31640625 23.04445312 -3.4453125 23.03515625 C-4.28835937 23.02355469 -5.13140625 23.01195312 -6 23 C-6 26.3 -6 29.6 -6 33 C-6.33 33 -6.66 33 -7 33 C-7 29.37 -7 25.74 -7 22 C-2.84960938 21.75585938 -2.84960938 21.75585938 1.30078125 21.51171875 C3.98715387 21.19065482 3.98715387 21.19065482 5.83203125 19.73828125 C7.31603843 17.5296418 7.40146827 16.14682652 7.375 13.5 C7.38273437 12.7265625 7.39046875 11.953125 7.3984375 11.15625 C6.9056562 8.48943358 6.1276451 7.63818683 4 6 C0.53287889 4.84429296 -2.5414956 4.67164707 -6.1875 4.4375 C-7.45980469 4.35371094 -8.73210937 4.26992187 -10.04296875 4.18359375 C-11.01878906 4.12300781 -11.99460938 4.06242188 -13 4 C-13 3.67 -13 3.34 -13 3 C-8.71 3 -4.42 3 0 3 C0 2.01 0 1.02 0 0 Z " fill="#FAAF66" transform="translate(155,155)"/>
<path d="M0 0 C2.27094146 0.02148848 4.53872193 0.00002567 6.80957031 -0.02539062 C17.32160989 -0.04462894 27.23485098 1.30171114 37.27050781 4.52148438 C38.26050781 5.51148438 38.26050781 5.51148438 39.27050781 6.52148438 C38.62726563 6.4003125 37.98402344 6.27914063 37.32128906 6.15429688 C34.30686516 5.5952739 31.28915534 5.05724172 28.27050781 4.52148438 C27.28526123 4.34302979 26.30001465 4.1645752 25.28491211 3.98071289 C17.38657006 2.64639322 9.77132197 2.24651863 1.77050781 2.33398438 C0.6503125 2.33462891 -0.46988281 2.33527344 -1.62402344 2.3359375 C-9.36279366 2.37610413 -17.02265298 2.83133152 -24.72949219 3.52148438 C-24.72949219 4.18148438 -24.72949219 4.84148438 -24.72949219 5.52148438 C-27.48028103 6.43841399 -29.08898131 6.63034521 -31.91699219 6.58398438 C-33.80417969 6.55304687 -33.80417969 6.55304687 -35.72949219 6.52148438 C-25.84019646 -0.07137944 -11.51523247 -0.12888336 0 0 Z " fill="#FBF0E0" transform="translate(124.7294921875,-0.521484375)"/>
<path d="M0 0 C0.66 0.33 1.32 0.66 2 1 C-0.27243875 6.23041767 -2.22224587 9.64265926 -7 13 C-7.33 13.66 -7.66 14.32 -8 15 C-8.66 15 -9.32 15 -10 15 C-10.1546875 15.9590625 -10.1546875 15.9590625 -10.3125 16.9375 C-10.539375 17.618125 -10.76625 18.29875 -11 19 C-11.99 19.33 -12.98 19.66 -14 20 C-14.33 21.98 -14.66 23.96 -15 26 C-16.32 26.33 -17.64 26.66 -19 27 C-18.896875 27.7425 -18.79375 28.485 -18.6875 29.25 C-19 32 -19 32 -21.5 34.3125 C-22.325 34.869375 -23.15 35.42625 -24 36 C-23.44098617 31.47706992 -21.52993858 28.15049498 -19.125 24.375 C-18.77308594 23.80265625 -18.42117187 23.2303125 -18.05859375 22.640625 C-16.26656323 19.7760409 -14.46154724 17.3095105 -12 15 C-11.54625 14.236875 -11.0925 13.47375 -10.625 12.6875 C-7.73131857 7.9017961 -4.01670534 3.86793847 0 0 Z " fill="#FAE5C2" transform="translate(37,36)"/>
<path d="M0 0 C1.0209375 0.04253906 1.0209375 0.04253906 2.0625 0.0859375 C2.743125 0.09882813 3.42375 0.11171875 4.125 0.125 C6.0625 0.4609375 6.0625 0.4609375 9.0625 2.4609375 C10.75715856 7.54491317 10.93649264 12.55404446 8.6875 17.4609375 C6.54748639 20.0948004 5.56237267 20.39573672 2.1875 20.8359375 C-0.9375 20.4609375 -0.9375 20.4609375 -3.3125 18.6484375 C-5.65692428 14.04975911 -5.77663428 9.53354205 -4.9375 4.4609375 C-2.85169806 0.67842817 -2.85169806 0.67842817 0 0 Z M-1.9375 2.4609375 C-4.53768816 6.36121975 -4.08835514 9.93528319 -3.9375 14.4609375 C-3.2775 14.4609375 -2.6175 14.4609375 -1.9375 14.4609375 C-1.9375 15.7809375 -1.9375 17.1009375 -1.9375 18.4609375 C0.7025 18.4609375 3.3425 18.4609375 6.0625 18.4609375 C6.0625 17.8009375 6.0625 17.1409375 6.0625 16.4609375 C6.7225 16.4609375 7.3825 16.4609375 8.0625 16.4609375 C8.0625 12.1709375 8.0625 7.8809375 8.0625 3.4609375 C5.77544169 2.31740834 4.46985238 2.35759311 1.9375 2.3984375 C0.65875 2.4190625 -0.62 2.4396875 -1.9375 2.4609375 Z " fill="#F19D70" transform="translate(205.9375,163.5390625)"/>
<path d="M0 0 C0.99 0.33 1.98 0.66 3 1 C3 4.63 3 8.26 3 12 C4.65 12.33 6.3 12.66 8 13 C8 13.33 8 13.66 8 14 C9.65 14.33 11.3 14.66 13 15 C13 15.33 13 15.66 13 16 C9.7 16 6.4 16 3 16 C3 19.3 3 22.6 3 26 C2.01 26 1.02 26 0 26 C0 17.42 0 8.84 0 0 Z " fill="#8B1153" transform="translate(144,161)"/>
<path d="M0 0 C6.0546875 -0.1953125 6.0546875 -0.1953125 8 0 C8.66 0.66 9.32 1.32 10 2 C9.43181818 7.56818182 9.43181818 7.56818182 8 9 C5.32941149 9.14115161 2.67567762 9.04247107 0 9 C0 6.03 0 3.06 0 0 Z " fill="#F19E71" transform="translate(148,164)"/>
<path d="M0 0 C0.99 0 1.98 0 3 0 C2.67 5.94 2.34 11.88 2 18 C1.34 18 0.68 18 0 18 C0 17.34 0 16.68 0 16 C-0.66 16 -1.32 16 -2 16 C-3.26237731 13.47524538 -3.09856404 11.68799534 -3.0625 8.875 C-3.05347656 7.96492187 -3.04445312 7.05484375 -3.03515625 6.1171875 C-3.02355469 5.41851562 -3.01195312 4.71984375 -3 4 C-2.01 3.67 -1.02 3.34 0 3 C0 2.01 0 1.02 0 0 Z " fill="#8E1157" transform="translate(198,165)"/>
<path d="M0 0 C0 9.9 0 19.8 0 30 C-0.33 30 -0.66 30 -1 30 C-1.33 23.4 -1.66 16.8 -2 10 C-2.99 10.66 -3.98 11.32 -5 12 C-5.06058594 11.37351563 -5.12117187 10.74703125 -5.18359375 10.1015625 C-5.26738281 9.28429687 -5.35117188 8.46703125 -5.4375 7.625 C-5.51871094 6.81289062 -5.59992188 6.00078125 -5.68359375 5.1640625 C-5.89090114 2.95727195 -5.89090114 2.95727195 -7 1 C-5 0 -5 0 0 0 Z " fill="#FEB868" transform="translate(169,159)"/>
<path d="M0 0 C6.15234375 -0.09765625 6.15234375 -0.09765625 8 0 C9 1 9 1 9.1875 3.4375 C9 6 9 6 7 8 C3.375 8.125 3.375 8.125 0 8 C0 5.36 0 2.72 0 0 Z " fill="#F6A96B" transform="translate(175,164)"/>
<path d="M0 0 C0.33 0 0.66 0 1 0 C1.33 2.97 1.66 5.94 2 9 C1.34 9 0.68 9 0 9 C0 6.03 0 3.06 0 0 Z M-2 10 C-1.34 11.32 -0.68 12.64 0 14 C-4.91064627 17.20695267 -7.95162041 18.69788995 -14 18 C-14.99 17.34 -15.98 16.68 -17 16 C-17 15.34 -17 14.68 -17 14 C-13.7 14.33 -10.4 14.66 -7 15 C-7 14.34 -7 13.68 -7 13 C-6.360625 12.87625 -5.72125 12.7525 -5.0625 12.625 C-4.381875 12.41875 -3.70125 12.2125 -3 12 C-2.67 11.34 -2.34 10.68 -2 10 Z " fill="#8D1257" transform="translate(218,170)"/>
<path d="M0 0 C0.33 0 0.66 0 1 0 C1.12117187 0.69867188 1.24234375 1.39734375 1.3671875 2.1171875 C1.53476563 3.02726563 1.70234375 3.93734375 1.875 4.875 C2.03742188 5.77992188 2.19984375 6.68484375 2.3671875 7.6171875 C2.83044703 10.16505988 2.83044703 10.16505988 5 12 C6.98821313 12.39764263 8.98944339 12.73775349 11 13 C11 13.33 11 13.66 11 14 C4.375 14.125 4.375 14.125 1 13 C1 13.66 1 14.32 1 15 C4.93905597 16.14889133 8.93565958 16.52582695 13 17 C13 17.33 13 17.66 13 18 C3.32311348 18.86059267 3.32311348 18.86059267 -0.5625 15.6875 C-3 13 -3 13 -4 10 C-3.34 10 -2.68 10 -2 10 C-2 10.66 -2 11.32 -2 12 C-1.34 12 -0.68 12 0 12 C0 8.04 0 4.08 0 0 Z " fill="#9F324F" transform="translate(200,171)"/>
<path d="M0 0 C0.33 0 0.66 0 1 0 C1.18262291 5.29606429 0.81674579 8.97723223 -1 14 C-2.05456395 19.95518466 -2.31084754 25.90196638 -2.5625 31.9375 C-2.60568359 32.90751953 -2.64886719 33.87753906 -2.69335938 34.87695312 C-2.79862093 37.25118601 -2.90075707 39.62550921 -3 42 C-3.33 42 -3.66 42 -4 42 C-4.43341298 27.43732378 -4.71178899 13.92501924 0 0 Z " fill="#F8E2BD" transform="translate(5,91)"/>
<path d="M0 0 C2.81097334 2.81097334 3.18370413 5.35751768 3.3125 9.1875 C3.2642973 14.1041749 1.86543038 18.00373087 -1 22 C-4 24 -4 24 -6.1875 23.625 C-7.0846875 23.315625 -7.0846875 23.315625 -8 23 C-7.030625 22.4225 -6.06125 21.845 -5.0625 21.25 C-1.90530708 19.35207138 -1.90530708 19.35207138 -1.125 16.75 C-1.08375 16.1725 -1.0425 15.595 -1 15 C-0.34 15 0.32 15 1 15 C0.67 10.05 0.34 5.1 0 0 Z " fill="#952545" transform="translate(219,164)"/>
<path d="M0 0 C0.66 0 1.32 0 2 0 C2 3.3 2 6.6 2 10 C1.01 10.495 1.01 10.495 0 11 C-0.99 10.34 -1.98 9.68 -3 9 C-2.67 8.34 -2.34 7.68 -2 7 C-2.99 7 -3.98 7 -5 7 C-4.67 6.01 -4.34 5.02 -4 4 C-3.34 4 -2.68 4 -2 4 C-1.34 2.68 -0.68 1.36 0 0 Z " fill="#FDBB5C" transform="translate(192,169)"/>
<path d="M0 0 C0.6875 1.6875 0.6875 1.6875 1 4 C-0.53017906 7.13686708 -2.20108568 9.89781114 -5 12 C-8.1796875 12.36328125 -8.1796875 12.36328125 -11.875 12.3125 C-13.69644531 12.30669922 -13.69644531 12.30669922 -15.5546875 12.30078125 C-18.80544218 12.01698521 -21.0764984 11.39505495 -24 10 C-23.67 8.68 -23.34 7.36 -23 6 C-22.38125 6.66 -21.7625 7.32 -21.125 8 C-16.73640208 10.80870267 -13.07908907 10.66940218 -8 10 C-4.95047409 8.89697999 -3.59541133 8.08916707 -2.0390625 5.2421875 C-1.28209388 3.52685494 -0.63271674 1.76494669 0 0 Z " fill="#F5A36C" transform="translate(221,178)"/>
<path d="M0 0 C7.22891566 -0.48192771 7.22891566 -0.48192771 10.5 1.5625 C12.50478781 4.82028019 12.28862859 7.24782833 12 11 C11.01 11 10.02 11 9 11 C8.34 8.36 7.68 5.72 7 3 C4.69 2.34 2.38 1.68 0 1 C0 0.67 0 0.34 0 0 Z " fill="#8B1157" transform="translate(150,161)"/>
<path d="M0 0 C-1.32 0.33 -2.64 0.66 -4 1 C-4 1.99 -4 2.98 -4 4 C-6.5 6.6875 -6.5 6.6875 -9 9 C-9.99 8.67 -10.98 8.34 -12 8 C-14.36522558 8.92203709 -16.70401807 9.91698965 -19 11 C-19 10.34 -19 9.68 -19 9 C-16.57602681 7.01992913 -13.84521494 5.46014615 -11.1875 3.8125 C-10.08051758 3.09803711 -10.08051758 3.09803711 -8.95117188 2.36914062 C-8.23896484 1.92376953 -7.52675781 1.47839844 -6.79296875 1.01953125 C-6.1383667 0.60807861 -5.48376465 0.19662598 -4.80932617 -0.22729492 C-3 -1 -3 -1 0 0 Z " fill="#FBD79F" transform="translate(71,14)"/>
<path d="M0 0 C0 0.33 0 0.66 0 1 C-2.22850277 1.33774332 -4.45783467 1.6700187 -6.6875 2 C-8.54955078 2.2784375 -8.54955078 2.2784375 -10.44921875 2.5625 C-13.35886371 2.92100411 -16.07700022 3.08942256 -19 3 C-19 3.66 -19 4.32 -19 5 C-21.75078884 5.91692961 -23.35948913 6.10886083 -26.1875 6.0625 C-28.0746875 6.0315625 -28.0746875 6.0315625 -30 6 C-26.46430706 3.64287137 -23.01272637 2.82434501 -18.9375 1.875 C-18.17832275 1.69614258 -17.41914551 1.51728516 -16.63696289 1.33300781 C-10.9767614 0.06755235 -5.81135707 -0.36897505 0 0 Z " fill="#FCECD4" transform="translate(119,0)"/>
<path d="M0 0 C1.89575251 -0.02721176 3.79161979 -0.04649136 5.6875 -0.0625 C6.74324219 -0.07410156 7.79898438 -0.08570313 8.88671875 -0.09765625 C11.72410262 -0.00865425 14.2438919 0.35060162 17 1 C17 1.66 17 2.32 17 3 C18.32 3.33 19.64 3.66 21 4 C21.33 6.31 21.66 8.62 22 11 C21.34 11 20.68 11 20 11 C19.62875 10.071875 19.2575 9.14375 18.875 8.1875 C16.55922082 4.25067539 15.33787681 3.39431755 11 2 C7.31782751 1.77176617 3.68342223 1.82303843 0 2 C0 1.34 0 0.68 0 0 Z " fill="#F4A16B" transform="translate(201,158)"/>
<path d="M0 0 C0.33 0 0.66 0 1 0 C1.125 7.625 1.125 7.625 0 11 C-2.76452033 12.38226016 -5.0461363 12.09525387 -8.125 12.0625 C-9.22070312 12.05347656 -10.31640625 12.04445312 -11.4453125 12.03515625 C-12.70988281 12.01775391 -12.70988281 12.01775391 -14 12 C-14 15.3 -14 18.6 -14 22 C-14.33 22 -14.66 22 -15 22 C-15 18.37 -15 14.74 -15 11 C-10.84960938 10.75585938 -10.84960938 10.75585938 -6.69921875 10.51171875 C-3.70266295 9.94363075 -2.73702505 9.46840402 -1 7 C-0.26958147 3.38976901 -0.26958147 3.38976901 0 0 Z " fill="#E18768" transform="translate(163,166)"/>
<path d="M0 0 C3.875 1.875 3.875 1.875 5 3 C7.33297433 3.04092937 9.66705225 3.04241723 12 3 C12.12375 3.639375 12.2475 4.27875 12.375 4.9375 C12.58125 5.618125 12.7875 6.29875 13 7 C13.66 7.33 14.32 7.66 15 8 C15 8.66 15 9.32 15 10 C15.99 10.33 16.98 10.66 18 11 C17.01 11.495 17.01 11.495 16 12 C15.40832031 11.60167969 14.81664063 11.20335937 14.20703125 10.79296875 C9.20891828 7.43480927 9.20891828 7.43480927 4.0625 4.3125 C2 3 2 3 0 0 Z " fill="#FAE3BF" transform="translate(50,226)"/>
<path d="M0 0 C0.33 0 0.66 0 1 0 C1.33 2.31 1.66 4.62 2 7 C2.99 5.68 3.98 4.36 5 3 C5 6.63 5 10.26 5 14 C4.34 14 3.68 14 3 14 C3 13.34 3 12.68 3 12 C2.34 12 1.68 12 1 12 C-0.26237731 9.47524538 -0.09856404 7.68799534 -0.0625 4.875 C-0.05347656 3.96492187 -0.04445312 3.05484375 -0.03515625 2.1171875 C-0.02355469 1.41851562 -0.01195312 0.71984375 0 0 Z " fill="#901A51" transform="translate(195,169)"/>
<path d="M0 0 C1 3 1 3 -0.21484375 5.69921875 C-0.78332031 6.68535156 -1.35179687 7.67148438 -1.9375 8.6875 C-2.50339844 9.68136719 -3.06929687 10.67523438 -3.65234375 11.69921875 C-4.31943359 12.83810547 -4.31943359 12.83810547 -5 14 C-5.33 14 -5.66 14 -6 14 C-6 11.36 -6 8.72 -6 6 C-5.34 6 -4.68 6 -4 6 C-3.67 4.68 -3.34 3.36 -3 2 C-2.01 2 -1.02 2 0 2 C0 1.34 0 0.68 0 0 Z " fill="#F8D7A3" transform="translate(241,177)"/>
<path d="M0 0 C1.66611905 -0.042721 3.33382885 -0.04063832 5 0 C6 1 6 1 6.0625 3.5625 C6.041875 4.366875 6.02125 5.17125 6 6 C4.02 6 2.04 6 0 6 C0 4.02 0 2.04 0 0 Z " fill="#942649" transform="translate(227,182)"/>
<path d="M0 0 C0.99 0.33 1.98 0.66 3 1 C2.96519531 2.15628906 2.96519531 2.15628906 2.9296875 3.3359375 C2.91164062 4.33882812 2.89359375 5.34171875 2.875 6.375 C2.85179687 7.37273437 2.82859375 8.37046875 2.8046875 9.3984375 C2.72783152 12.16262173 2.72783152 12.16262173 5 14 C4.01 14.495 4.01 14.495 3 15 C2.01 14.67 1.02 14.34 0 14 C0 9.38 0 4.76 0 0 Z " fill="#8F0E5D" transform="translate(144,161)"/>
<path d="M0 0 C1.32 0 2.64 0 4 0 C2.78567447 3.45615727 1.61659454 5.48806925 -1 8 C-1.515625 8.86625 -2.03125 9.7325 -2.5625 10.625 C-4 13 -4 13 -6 14 C-5.71125 13.46375 -5.4225 12.9275 -5.125 12.375 C-3.83288192 9.64719516 -2.91441408 6.87387282 -2 4 C-1.34 4 -0.68 4 0 4 C0 2.68 0 1.36 0 0 Z " fill="#F7DBAD" transform="translate(231,191)"/>
<path d="M0 0 C2.31 0.33 4.62 0.66 7 1 C7 1.66 7 2.32 7 3 C8.98 3 10.96 3 13 3 C13 3.66 13 4.32 13 5 C13.99 5.33 14.98 5.66 16 6 C14 7 14 7 11.50390625 6.328125 C10.04791016 5.79445312 10.04791016 5.79445312 8.5625 5.25 C7.11037109 4.73179687 7.11037109 4.73179687 5.62890625 4.203125 C3.13450502 3.06155653 1.75401712 2.06914562 0 0 Z " fill="#F9E3BE" transform="translate(71,239)"/>
<path d="M0 0 C2 1.3125 2 1.3125 4 3 C4 3.99 4 4.98 4 6 C4.66 6 5.32 6 6 6 C7.32421875 7.6796875 7.32421875 7.6796875 8.6875 9.875 C9.14511719 10.59429687 9.60273438 11.31359375 10.07421875 12.0546875 C10.53248047 13.01761719 10.53248047 13.01761719 11 14 C10.67 14.66 10.34 15.32 10 16 C7 12.25 7 12.25 7 10 C6.401875 9.79375 5.80375 9.5875 5.1875 9.375 C2.1616573 7.47304173 1.35291498 5.24699596 0 2 C0 1.34 0 0.68 0 0 Z " fill="#FAE9CD" transform="translate(225,47)"/>
<path d="M0 0 C0.66 0.33 1.32 0.66 2 1 C-0.27243875 6.23041767 -2.22224587 9.64265926 -7 13 C-7.33 13.66 -7.66 14.32 -8 15 C-8.66 15 -9.32 15 -10 15 C-9.01469421 12.80201017 -8.18695263 11.17947452 -6.4375 9.5 C-4.84721577 8.09875018 -4.84721577 8.09875018 -4.5625 6.0625 C-3.79134644 3.23493694 -2.13771443 1.93083884 0 0 Z " fill="#F6D295" transform="translate(37,36)"/>
<path d="M0 0 C3.03852705 1.40976705 5.5939595 3.08870228 8.25 5.125 C8.95640625 5.66382813 9.6628125 6.20265625 10.390625 6.7578125 C10.92171875 7.16773438 11.4528125 7.57765625 12 8 C11.67 8.66 11.34 9.32 11 10 C8.0625 8.6875 8.0625 8.6875 5 7 C4.67 6.01 4.34 5.02 4 4 C3.01 4 2.02 4 1 4 C0.67 2.68 0.34 1.36 0 0 Z " fill="#F7E2BB" transform="translate(198,22)"/>
<path d="M0 0 C-3.29545446 2.19696964 -6.21297178 2.91799194 -10 4 C-10.99 4.66 -11.98 5.32 -13 6 C-15.1875 5.625 -15.1875 5.625 -17 5 C-15.41925436 4.18247697 -13.83528777 3.37118003 -12.25 2.5625 C-11.36828125 2.11003906 -10.4865625 1.65757813 -9.578125 1.19140625 C-5.78457923 -0.56167172 -4.03309764 -1.34436588 0 0 Z " fill="#F9E5C8" transform="translate(89,7)"/>
<path d="M0 0 C5.96994679 -0.31420773 9.49852783 0.40496596 15 3 C17.77888613 3.69140522 17.77888613 3.69140522 20 4 C20 4.33 20 4.66 20 5 C12.96871122 4.56615452 6.670985 3.25678003 0 1 C0 0.67 0 0.34 0 0 Z " fill="#FBEED8" transform="translate(87,246)"/>
<path d="M0 0 C1.98 0 3.96 0 6 0 C6 1.65 6 3.3 6 5 C4.02 5 2.04 5 0 5 C0 3.35 0 1.7 0 0 Z " fill="#FDBB5A" transform="translate(150,165)"/>
<path d="M0 0 C0.33 0.66 0.66 1.32 1 2 C2.98 2 4.96 2 7 2 C7 2.66 7 3.32 7 4 C5.02 4 3.04 4 1 4 C1 6.31 1 8.62 1 11 C0.67 11 0.34 11 0 11 C-0.19406478 9.35492782 -0.38007935 7.70890406 -0.5625 6.0625 C-0.66691406 5.14597656 -0.77132812 4.22945312 -0.87890625 3.28515625 C-0.91886719 2.53105469 -0.95882812 1.77695313 -1 1 C-0.67 0.67 -0.34 0.34 0 0 Z " fill="#9A294B" transform="translate(174,160)"/>
<path d="M0 0 C-0.56371414 3.26954202 -1.49962266 4.82575883 -4 7 C-5.5 5.625 -5.5 5.625 -7 4 C-7 3.34 -7 2.68 -7 2 C-2.25 0 -2.25 0 0 0 Z " fill="#931B58" transform="translate(186,171)"/>
<path d="M0 0 C-3.3 2.64 -6.6 5.28 -10 8 C-10.66 7.67 -11.32 7.34 -12 7 C-11.195625 6.401875 -10.39125 5.80375 -9.5625 5.1875 C-6.77672016 3.19052724 -6.77672016 3.19052724 -6 0 C-3.42525708 -0.99667468 -2.51072708 -1.25536354 0 0 Z " fill="#F9E8CA" transform="translate(209,223)"/>
<path d="M0 0 C2.47342266 3.71013399 2.38503486 5.61060262 2 10 C0.5 12.4375 0.5 12.4375 -1 14 C-1.66 13.67 -2.32 13.34 -3 13 C-2.68289062 12.43796875 -2.36578125 11.8759375 -2.0390625 11.296875 C-0.93125475 8.84803683 -0.61024601 6.91612145 -0.375 4.25 C-0.30023438 3.45078125 -0.22546875 2.6515625 -0.1484375 1.828125 C-0.09945312 1.22484375 -0.05046875 0.6215625 0 0 Z " fill="#8F2046" transform="translate(216,169)"/>
<path d="M0 0 C5.34844008 0.53484401 9.35796103 2.46690767 14 5 C11.09660535 6.45169732 9.09125158 5.72348441 6 5 C5.67 4.34 5.34 3.68 5 3 C3.35636866 2.27840576 1.68949614 1.60648579 0 1 C0 0.67 0 0.34 0 0 Z " fill="#FBE9CF" transform="translate(168,7)"/>
<path d="M0 0 C0.66 0.33 1.32 0.66 2 1 C2.625 3.5625 2.625 3.5625 3 6 C1.02 6 -0.96 6 -3 6 C-3.33 4.35 -3.66 2.7 -4 1 C-3.34 1 -2.68 1 -2 1 C-2 1.99 -2 2.98 -2 4 C-1.34 4 -0.68 4 0 4 C0 2.68 0 1.36 0 0 Z " fill="#8E223E" transform="translate(188,182)"/>
<path d="M0 0 C2.64 0 5.28 0 8 0 C6.68 0.33 5.36 0.66 4 1 C4.33 1.99 4.66 2.98 5 4 C3.35 4 1.7 4 0 4 C0 2.68 0 1.36 0 0 Z " fill="#871643" transform="translate(175,172)"/>
<path d="M0 0 C0.99 0.33 1.98 0.66 3 1 C-1.75 4 -1.75 4 -4 4 C-4.33 4.99 -4.66 5.98 -5 7 C-6.32 6.67 -7.64 6.34 -9 6 C-7.57140593 4.96674014 -6.13177617 3.94872366 -4.6875 2.9375 C-3.88699219 2.36902344 -3.08648437 1.80054688 -2.26171875 1.21484375 C-1.51535156 0.81394531 -0.76898438 0.41304687 0 0 Z " fill="#FBEED6" transform="translate(68,13)"/>
<path d="M0 0 C0 3 0 3 -1.9375 5.1875 C-4 7 -4 7 -5 7 C-5 5.35 -5 3.7 -5 2 C-4.360625 1.855625 -3.72125 1.71125 -3.0625 1.5625 C-1.02454854 1.18992819 -1.02454854 1.18992819 0 0 Z " fill="#F8DFB2" transform="translate(223,206)"/>
<path d="M0 0 C1.21236328 0.02707031 1.21236328 0.02707031 2.44921875 0.0546875 C3.37154297 0.08949219 3.37154297 0.08949219 4.3125 0.125 C4.3125 0.455 4.3125 0.785 4.3125 1.125 C3.219375 1.24875 2.12625 1.3725 1 1.5 C-2.76131802 1.87964801 -2.76131802 1.87964801 -5.6875 4.125 C-6.3475 3.465 -7.0075 2.805 -7.6875 2.125 C-4.48369983 -0.01086678 -3.66810033 -0.10632175 0 0 Z " fill="#962947" transform="translate(207.6875,158.875)"/>
<path d="M0 0 C0.66 0.33 1.32 0.66 2 1 C2.40729228 3.32156597 2.74438677 5.6568787 3 8 C2.34 8 1.68 8 1 8 C1 7.01 1 6.02 1 5 C0.34 4.67 -0.32 4.34 -1 4 C-0.67 2.68 -0.34 1.36 0 0 Z " fill="#8A1059" transform="translate(185,178)"/>
<path d="M0 0 C0.99 0.99 1.98 1.98 3 3 C2.01 3 1.02 3 0 3 C0 4.65 0 6.3 0 8 C-1.32 6.35 -2.64 4.7 -4 3 C-2.68 2.67 -1.36 2.34 0 2 C0 1.34 0 0.68 0 0 Z " fill="#93214C" transform="translate(216,161)"/>
</svg>
